<svg width="18" height="18" viewBox="0 0 18 18" fill="none" xmlns="http://www.w3.org/2000/svg">
<path d="M7.18945 16.1623V17.9898L6.74863 17.6328C6.68051 17.5776 5.05989 16.2587 3.41647 14.3673C1.14944 11.7581 0 9.41602 0 7.40625V7.20705C0 3.23307 3.22517 0 7.18945 0C11.1537 0 14.3789 3.23307 14.3789 7.20705V7.40625C14.3789 7.57503 14.37 7.74642 14.3538 7.91988L12.9478 6.63409C12.6598 3.70347 10.1873 1.40625 7.18945 1.40625C3.99875 1.40625 1.40282 4.00853 1.40282 7.20705V7.40625C1.40282 10.8025 5.76796 14.9138 7.18945 16.1623ZM11.5031 15.1523H13.6073V13.043H11.5031V15.1523ZM7.18945 4.21875C8.83315 4.21875 10.1705 5.55933 10.1705 7.20705C10.1705 8.85476 8.83315 10.1953 7.18945 10.1953C5.54576 10.1953 4.20845 8.85476 4.20845 7.20705C4.20845 5.55933 5.54576 4.21875 7.18945 4.21875ZM7.18945 5.625C6.3192 5.625 5.61127 6.33466 5.61127 7.20705C5.61127 8.07929 6.3192 8.7891 7.18945 8.7891C8.05957 8.7891 8.76764 8.07929 8.76764 7.20705C8.76764 6.33466 8.05957 5.625 7.18945 5.625ZM17.0546 14.1967L16.6602 13.836V16.0936C16.6602 17.1448 15.807 18 14.7583 18H10.317C9.26834 18 8.41512 17.1448 8.41512 16.0936V13.836L8.02071 14.1967L7.07533 13.1579L12.5376 8.16245L18 13.1579L17.0546 14.1967ZM15.2574 12.5531L12.5376 10.0659L9.81793 12.5531V16.0935C9.81793 16.3694 10.0418 16.5938 10.317 16.5938H14.7583C15.0336 16.5938 15.2574 16.3694 15.2574 16.0935V12.5531Z" fill="#CCCCCC"/>
</svg>
