<svg width="20" height="20" viewBox="0 0 20 20" fill="none" xmlns="http://www.w3.org/2000/svg">
<mask id="path-1-outside-1_1612_18" maskUnits="userSpaceOnUse" x="0" y="0" width="20" height="20" fill="black">
<rect fill="white" width="20" height="20"/>
<path fill-rule="evenodd" clip-rule="evenodd" d="M16.2576 4.08355C17.6936 5.71361 18.6282 7.76196 18.9663 10.013C19.0157 10.3278 18.8258 10.6296 18.5484 10.6771C18.5454 10.6775 18.5423 10.678 18.5393 10.6784C18.5126 10.6822 18.4884 10.6857 18.4611 10.6857C18.2141 10.6857 17.9976 10.4873 17.9558 10.2027C17.6557 8.19319 16.8199 6.36046 15.5358 4.90289C14.2517 3.44964 12.6371 2.49662 10.8668 2.15595C10.5857 2.09989 10.3995 1.80234 10.4451 1.48323C10.4945 1.16843 10.7566 0.952815 11.0339 1.00888C13.017 1.39267 14.8216 2.4535 16.2576 4.08355ZM16.1526 12.2071C15.7598 11.8266 15.2859 11.6232 14.7836 11.6232C14.2854 11.6232 13.8075 11.8228 13.3984 12.2034L12.1185 13.3901C12.049 13.3553 11.9794 13.3221 11.911 13.2894L11.9109 13.2894L11.9108 13.2893C11.8757 13.2726 11.841 13.256 11.8067 13.2394C11.6609 13.1716 11.5231 13.1076 11.4057 13.0397C10.2068 12.3315 9.11727 11.4084 8.07229 10.2141C7.566 9.61882 7.22578 9.11773 6.97871 8.60912C7.27879 8.35381 7.55903 8.08928 7.83139 7.8322L7.83141 7.83217L7.91838 7.75012C7.97508 7.69737 8.03179 7.64368 8.08849 7.59C8.1452 7.53631 8.2019 7.48262 8.2586 7.42988C9.10917 6.63869 9.10917 5.61392 8.2586 4.82274L7.15287 3.7942C7.02731 3.6774 6.8977 3.55684 6.77619 3.43628C6.53318 3.20269 6.27801 2.96157 6.01474 2.73552C5.62186 2.37383 5.15202 2.18169 4.65789 2.18169C4.16375 2.18169 3.68581 2.37383 3.28078 2.73552L3.27268 2.74305L1.89558 4.03532C1.37714 4.51756 1.08147 5.1053 1.01667 5.78723C0.919459 6.88735 1.26779 7.91212 1.5351 8.58274C2.19125 10.2292 3.17143 11.755 4.63358 13.3901C6.40762 15.3606 8.54212 16.9166 10.9804 18.0129C11.912 18.4236 13.1554 18.9096 14.5447 18.9925C14.6297 18.9962 14.7188 19 14.7998 19C15.7355 19 16.5212 18.6873 17.1369 18.0657C17.1379 18.0638 17.1391 18.0621 17.1405 18.0606C17.1419 18.0591 17.1434 18.0576 17.145 18.0562C17.148 18.0534 17.151 18.0506 17.1531 18.0468C17.3481 17.827 17.5709 17.6266 17.8054 17.4157L17.8619 17.3649C18.036 17.2104 18.2142 17.0484 18.3884 16.8789C18.7894 16.4908 19 16.0387 19 15.5753C19 15.1081 18.7853 14.6598 18.3763 14.283L16.1526 12.2071ZM17.2009 16.5503L17.2009 16.5503L17.1085 16.634C16.8452 16.8676 16.5779 17.1125 16.3268 17.3875C15.9177 17.7944 15.4357 17.9865 14.8039 17.9865C14.7431 17.9865 14.6783 17.9865 14.6176 17.9828C13.4146 17.9112 12.2968 17.4741 11.4583 17.1012C9.16587 16.0689 7.15287 14.6033 5.4801 12.7459C4.09895 11.1974 3.17548 9.76575 2.56388 8.2286C2.1872 7.29048 2.04949 6.55957 2.11025 5.87011C2.15075 5.42931 2.33301 5.06386 2.66919 4.75115L4.05034 3.46642C4.24881 3.29311 4.45942 3.19892 4.66599 3.19892C4.92116 3.19892 5.12772 3.34209 5.25733 3.46265L5.26948 3.47395C5.51655 3.6887 5.75147 3.91099 5.99854 4.14835C6.06181 4.2091 6.12611 4.26985 6.19092 4.33109L6.19092 4.33109L6.19095 4.33112C6.25474 4.39139 6.31903 4.45213 6.38331 4.5138L7.48905 5.54234C7.91838 5.9417 7.91838 6.31092 7.48905 6.71028C7.44975 6.74683 7.4109 6.78338 7.37221 6.8198L7.37219 6.81982C7.29524 6.89223 7.21887 6.96409 7.14072 7.03428C6.8005 7.35829 6.47647 7.6597 6.1241 7.95357C6.1224 7.95514 6.1207 7.95656 6.11904 7.95787C6.11789 7.95878 6.11677 7.95965 6.11567 7.96049C6.11076 7.96424 6.10646 7.96754 6.10384 7.9724C5.75552 8.29641 5.82032 8.61289 5.89323 8.82764L5.90538 8.86154C6.19295 9.50956 6.59798 10.1199 7.21363 10.847L7.21768 10.8508C8.33556 12.1318 9.5142 13.1302 10.8143 13.895C10.9804 13.9929 11.1505 14.0721 11.3125 14.1474L11.3125 14.1474L11.3126 14.1474C11.4584 14.2152 11.5961 14.2793 11.7135 14.3471C11.7216 14.3509 11.7297 14.3556 11.7378 14.3603C11.7459 14.365 11.754 14.3697 11.7621 14.3735C11.8998 14.4375 12.0294 14.4676 12.1631 14.4676C12.4993 14.4676 12.7099 14.2717 12.7787 14.2077L14.1639 12.9192C14.3017 12.7911 14.5204 12.6366 14.7755 12.6366C15.0267 12.6366 15.2332 12.7836 15.3588 12.9117L15.3669 12.9192L17.5986 14.9951C18.0158 15.3794 18.0158 15.775 17.6026 16.1743C17.473 16.3043 17.3405 16.424 17.2009 16.5503ZM10.7145 5.86004C11.7099 6.04978 12.614 6.58451 13.3358 7.40385C14.0576 8.22319 14.5249 9.24952 14.6959 10.3793C14.7377 10.664 14.9542 10.8623 15.2011 10.8623C15.2285 10.8623 15.2527 10.8588 15.2794 10.855L15.2885 10.8537C15.5696 10.8019 15.7558 10.5001 15.7102 10.181C15.5051 8.81397 14.9352 7.56771 14.0652 6.58019C13.1953 5.59268 12.0974 4.94583 10.8931 4.71296C10.6119 4.66122 10.3498 4.87252 10.3004 5.18732C10.251 5.50212 10.4334 5.80829 10.7145 5.86004Z"/>
</mask>
<path fill-rule="evenodd" clip-rule="evenodd" d="M16.2576 4.08355C17.6936 5.71361 18.6282 7.76196 18.9663 10.013C19.0157 10.3278 18.8258 10.6296 18.5484 10.6771C18.5454 10.6775 18.5423 10.678 18.5393 10.6784C18.5126 10.6822 18.4884 10.6857 18.4611 10.6857C18.2141 10.6857 17.9976 10.4873 17.9558 10.2027C17.6557 8.19319 16.8199 6.36046 15.5358 4.90289C14.2517 3.44964 12.6371 2.49662 10.8668 2.15595C10.5857 2.09989 10.3995 1.80234 10.4451 1.48323C10.4945 1.16843 10.7566 0.952815 11.0339 1.00888C13.017 1.39267 14.8216 2.4535 16.2576 4.08355ZM16.1526 12.2071C15.7598 11.8266 15.2859 11.6232 14.7836 11.6232C14.2854 11.6232 13.8075 11.8228 13.3984 12.2034L12.1185 13.3901C12.049 13.3553 11.9794 13.3221 11.911 13.2894L11.9109 13.2894L11.9108 13.2893C11.8757 13.2726 11.841 13.256 11.8067 13.2394C11.6609 13.1716 11.5231 13.1076 11.4057 13.0397C10.2068 12.3315 9.11727 11.4084 8.07229 10.2141C7.566 9.61882 7.22578 9.11773 6.97871 8.60912C7.27879 8.35381 7.55903 8.08928 7.83139 7.8322L7.83141 7.83217L7.91838 7.75012C7.97508 7.69737 8.03179 7.64368 8.08849 7.59C8.1452 7.53631 8.2019 7.48262 8.2586 7.42988C9.10917 6.63869 9.10917 5.61392 8.2586 4.82274L7.15287 3.7942C7.02731 3.6774 6.8977 3.55684 6.77619 3.43628C6.53318 3.20269 6.27801 2.96157 6.01474 2.73552C5.62186 2.37383 5.15202 2.18169 4.65789 2.18169C4.16375 2.18169 3.68581 2.37383 3.28078 2.73552L3.27268 2.74305L1.89558 4.03532C1.37714 4.51756 1.08147 5.1053 1.01667 5.78723C0.919459 6.88735 1.26779 7.91212 1.5351 8.58274C2.19125 10.2292 3.17143 11.755 4.63358 13.3901C6.40762 15.3606 8.54212 16.9166 10.9804 18.0129C11.912 18.4236 13.1554 18.9096 14.5447 18.9925C14.6297 18.9962 14.7188 19 14.7998 19C15.7355 19 16.5212 18.6873 17.1369 18.0657C17.1379 18.0638 17.1391 18.0621 17.1405 18.0606C17.1419 18.0591 17.1434 18.0576 17.145 18.0562C17.148 18.0534 17.151 18.0506 17.1531 18.0468C17.3481 17.827 17.5709 17.6266 17.8054 17.4157L17.8619 17.3649C18.036 17.2104 18.2142 17.0484 18.3884 16.8789C18.7894 16.4908 19 16.0387 19 15.5753C19 15.1081 18.7853 14.6598 18.3763 14.283L16.1526 12.2071ZM17.2009 16.5503L17.2009 16.5503L17.1085 16.634C16.8452 16.8676 16.5779 17.1125 16.3268 17.3875C15.9177 17.7944 15.4357 17.9865 14.8039 17.9865C14.7431 17.9865 14.6783 17.9865 14.6176 17.9828C13.4146 17.9112 12.2968 17.4741 11.4583 17.1012C9.16587 16.0689 7.15287 14.6033 5.4801 12.7459C4.09895 11.1974 3.17548 9.76575 2.56388 8.2286C2.1872 7.29048 2.04949 6.55957 2.11025 5.87011C2.15075 5.42931 2.33301 5.06386 2.66919 4.75115L4.05034 3.46642C4.24881 3.29311 4.45942 3.19892 4.66599 3.19892C4.92116 3.19892 5.12772 3.34209 5.25733 3.46265L5.26948 3.47395C5.51655 3.6887 5.75147 3.91099 5.99854 4.14835C6.06181 4.2091 6.12611 4.26985 6.19092 4.33109L6.19092 4.33109L6.19095 4.33112C6.25474 4.39139 6.31903 4.45213 6.38331 4.5138L7.48905 5.54234C7.91838 5.9417 7.91838 6.31092 7.48905 6.71028C7.44975 6.74683 7.4109 6.78338 7.37221 6.8198L7.37219 6.81982C7.29524 6.89223 7.21887 6.96409 7.14072 7.03428C6.8005 7.35829 6.47647 7.6597 6.1241 7.95357C6.1224 7.95514 6.1207 7.95656 6.11904 7.95787C6.11789 7.95878 6.11677 7.95965 6.11567 7.96049C6.11076 7.96424 6.10646 7.96754 6.10384 7.9724C5.75552 8.29641 5.82032 8.61289 5.89323 8.82764L5.90538 8.86154C6.19295 9.50956 6.59798 10.1199 7.21363 10.847L7.21768 10.8508C8.33556 12.1318 9.5142 13.1302 10.8143 13.895C10.9804 13.9929 11.1505 14.0721 11.3125 14.1474L11.3125 14.1474L11.3126 14.1474C11.4584 14.2152 11.5961 14.2793 11.7135 14.3471C11.7216 14.3509 11.7297 14.3556 11.7378 14.3603C11.7459 14.365 11.754 14.3697 11.7621 14.3735C11.8998 14.4375 12.0294 14.4676 12.1631 14.4676C12.4993 14.4676 12.7099 14.2717 12.7787 14.2077L14.1639 12.9192C14.3017 12.7911 14.5204 12.6366 14.7755 12.6366C15.0267 12.6366 15.2332 12.7836 15.3588 12.9117L15.3669 12.9192L17.5986 14.9951C18.0158 15.3794 18.0158 15.775 17.6026 16.1743C17.473 16.3043 17.3405 16.424 17.2009 16.5503ZM10.7145 5.86004C11.7099 6.04978 12.614 6.58451 13.3358 7.40385C14.0576 8.22319 14.5249 9.24952 14.6959 10.3793C14.7377 10.664 14.9542 10.8623 15.2011 10.8623C15.2285 10.8623 15.2527 10.8588 15.2794 10.855L15.2885 10.8537C15.5696 10.8019 15.7558 10.5001 15.7102 10.181C15.5051 8.81397 14.9352 7.56771 14.0652 6.58019C13.1953 5.59268 12.0974 4.94583 10.8931 4.71296C10.6119 4.66122 10.3498 4.87252 10.3004 5.18732C10.251 5.50212 10.4334 5.80829 10.7145 5.86004Z" fill="#CCCCCC"/>
<path d="M18.9663 10.013L18.7685 10.0427L18.7687 10.044L18.9663 10.013ZM16.2576 4.08355L16.1075 4.21576L16.1075 4.21576L16.2576 4.08355ZM18.5484 10.6771L18.5766 10.8752L18.5822 10.8742L18.5484 10.6771ZM18.5393 10.6784L18.5109 10.4804L18.5109 10.4804L18.5393 10.6784ZM17.9558 10.2027L18.1537 10.1737L18.1536 10.1732L17.9558 10.2027ZM15.5358 4.90289L15.6859 4.77069L15.6857 4.77047L15.5358 4.90289ZM10.8668 2.15595L10.8277 2.35209L10.829 2.35235L10.8668 2.15595ZM10.4451 1.48323L10.2475 1.45223L10.2471 1.45494L10.4451 1.48323ZM11.0339 1.00888L10.9943 1.20492L10.9959 1.20523L11.0339 1.00888ZM16.1526 12.2071L16.0135 12.3508L16.0162 12.3533L16.1526 12.2071ZM13.3984 12.2034L13.5344 12.35L13.5347 12.3498L13.3984 12.2034ZM12.1185 13.3901L12.029 13.569L12.1529 13.631L12.2545 13.5368L12.1185 13.3901ZM11.911 13.2894L11.8247 13.4699L11.8248 13.4699L11.911 13.2894ZM11.9109 13.2894L11.8242 13.4696L11.8246 13.4698L11.9109 13.2894ZM11.9108 13.2893L11.9974 13.1091L11.9969 13.1088L11.9108 13.2893ZM11.8067 13.2394L11.8938 13.0594L11.891 13.0581L11.8067 13.2394ZM11.4057 13.0397L11.304 13.212L11.3057 13.213L11.4057 13.0397ZM8.07229 10.2141L7.91993 10.3437L7.92177 10.3458L8.07229 10.2141ZM6.97871 8.60912L6.84911 8.45679L6.73112 8.55717L6.79881 8.69651L6.97871 8.60912ZM7.83139 7.8322L7.96873 7.9777L7.97281 7.97362L7.83139 7.8322ZM7.83141 7.83217L7.6941 7.68664L7.68999 7.69075L7.83141 7.83217ZM7.91838 7.75012L7.78216 7.60367L7.78112 7.60465L7.91838 7.75012ZM8.2586 7.42988L8.39482 7.57632L8.39482 7.57632L8.2586 7.42988ZM8.2586 4.82274L8.39482 4.67629L8.39482 4.67629L8.2586 4.82274ZM7.15287 3.7942L7.01665 3.94064L7.01665 3.94064L7.15287 3.7942ZM6.77619 3.43628L6.91708 3.29429L6.91479 3.29209L6.77619 3.43628ZM6.01474 2.73552L5.8792 2.88275L5.88445 2.88725L6.01474 2.73552ZM3.28078 2.73552L3.14754 2.58631L3.14456 2.58908L3.28078 2.73552ZM3.27268 2.74305L3.13646 2.59661L3.13583 2.59721L3.27268 2.74305ZM1.89558 4.03532L2.0318 4.18176L2.03244 4.18116L1.89558 4.03532ZM1.01667 5.78723L0.817559 5.76831L0.817443 5.76962L1.01667 5.78723ZM1.5351 8.58274L1.72089 8.5087L1.72089 8.50869L1.5351 8.58274ZM4.63358 13.3901L4.4845 13.5234L4.48495 13.524L4.63358 13.3901ZM10.9804 18.0129L10.8984 18.1953L10.8997 18.1959L10.9804 18.0129ZM14.5447 18.9925L14.5328 19.1921L14.5358 19.1923L14.5447 18.9925ZM17.1369 18.0657L17.279 18.2064L17.2993 18.1859L17.313 18.1604L17.1369 18.0657ZM17.1405 18.0606L16.9926 17.926L16.9925 17.9261L17.1405 18.0606ZM17.145 18.0562L17.0088 17.9098L17.0088 17.9098L17.145 18.0562ZM17.1531 18.0468L17.0035 17.9141L16.988 17.9315L16.9769 17.9521L17.1531 18.0468ZM17.8054 17.4157L17.9391 17.5644L17.9391 17.5644L17.8054 17.4157ZM17.8619 17.3649L17.7292 17.2153L17.7281 17.2162L17.8619 17.3649ZM18.3884 16.8789L18.2493 16.7352L18.2489 16.7356L18.3884 16.8789ZM18.3763 14.283L18.2398 14.4292L18.2408 14.4302L18.3763 14.283ZM17.2009 16.5503L17.3351 16.6986L17.337 16.6969L17.2009 16.5503ZM17.2009 16.5503L17.0667 16.4019L17.0648 16.4037L17.2009 16.5503ZM17.1085 16.634L17.2413 16.7836L17.2428 16.7822L17.1085 16.634ZM16.3268 17.3875L16.468 17.5295L16.4745 17.5224L16.3268 17.3875ZM14.6176 17.9828L14.6299 17.7832L14.6295 17.7831L14.6176 17.9828ZM11.4583 17.1012L11.3762 17.2835L11.377 17.2839L11.4583 17.1012ZM5.4801 12.7459L5.33084 12.879L5.33148 12.8797L5.4801 12.7459ZM2.56388 8.2286L2.74971 8.15466L2.74948 8.15407L2.56388 8.2286ZM2.11025 5.87011L1.91109 5.85181L1.91102 5.85256L2.11025 5.87011ZM2.66919 4.75115L2.80541 4.89759L2.80541 4.89759L2.66919 4.75115ZM4.05034 3.46642L3.91873 3.3157L3.91412 3.31998L4.05034 3.46642ZM5.25733 3.46265L5.12111 3.60909L5.12112 3.6091L5.25733 3.46265ZM5.26948 3.47395L5.13319 3.62048L5.13828 3.6249L5.26948 3.47395ZM5.99854 4.14835L5.85998 4.29257L5.86001 4.29261L5.99854 4.14835ZM6.19092 4.33109L6.05357 4.47646L6.06183 4.48427L6.07092 4.49109L6.19092 4.33109ZM6.19092 4.33109L6.32867 4.18609L6.32024 4.17808L6.31092 4.17109L6.19092 4.33109ZM6.19095 4.33112L6.0532 4.47612L6.0536 4.47649L6.19095 4.33112ZM6.38331 4.5138L6.24485 4.65815L6.2471 4.66024L6.38331 4.5138ZM7.48905 5.54234L7.62526 5.3959L7.62526 5.3959L7.48905 5.54234ZM7.48905 6.71028L7.35283 6.56383L7.35283 6.56383L7.48905 6.71028ZM7.37221 6.8198L7.50868 6.96601L7.50927 6.96545L7.37221 6.8198ZM7.37219 6.81982L7.23572 6.6736L7.23513 6.67417L7.37219 6.81982ZM7.14072 7.03428L7.00703 6.88542L7.00279 6.88945L7.14072 7.03428ZM6.1241 7.95357L5.99581 7.79974L5.98789 7.80711L6.1241 7.95357ZM6.11904 7.95787L5.99473 7.8012L5.9947 7.80122L6.11904 7.95787ZM6.11567 7.96049L5.99412 7.80166L5.9941 7.80168L6.11567 7.96049ZM6.10384 7.9724L6.24006 8.11884L6.26432 8.09628L6.28001 8.06709L6.10384 7.9724ZM5.89323 8.82764L5.70382 8.89194L5.70495 8.89511L5.89323 8.82764ZM5.90538 8.86154L5.7171 8.92901L5.71959 8.93594L5.72257 8.94267L5.90538 8.86154ZM7.21363 10.847L7.06099 10.9763L7.06869 10.9854L7.07742 10.9935L7.21363 10.847ZM7.21768 10.8508L7.36836 10.7193L7.36151 10.7115L7.35388 10.7044L7.21768 10.8508ZM10.8143 13.895L10.916 13.7227L10.9157 13.7226L10.8143 13.895ZM11.3125 14.1474L11.402 13.9684L11.3969 13.9661L11.3125 14.1474ZM11.3126 14.1474L11.2231 14.3264L11.2282 14.3288L11.3126 14.1474ZM11.7135 14.3471L11.6135 14.5203L11.6212 14.5247L11.6292 14.5284L11.7135 14.3471ZM11.7621 14.3735L11.8465 14.1921L11.8464 14.1921L11.7621 14.3735ZM12.7787 14.2077L12.915 14.3541L12.915 14.3541L12.7787 14.2077ZM14.1639 12.9192L14.3002 13.0656L14.3002 13.0656L14.1639 12.9192ZM15.3588 12.9117L15.2158 13.0518L15.2226 13.0581L15.3588 12.9117ZM15.3669 12.9192L15.5031 12.7727L15.5031 12.7727L15.3669 12.9192ZM17.5986 14.9951L17.4624 15.1415L17.4631 15.1422L17.5986 14.9951ZM17.6026 16.1743L17.4636 16.0305L17.4611 16.033L17.6026 16.1743ZM13.3358 7.40385L13.4859 7.27164L13.4859 7.27164L13.3358 7.40385ZM10.7145 5.86004L10.752 5.66357L10.7507 5.66334L10.7145 5.86004ZM14.6959 10.3793L14.8938 10.3503L14.8936 10.3494L14.6959 10.3793ZM15.2794 10.855L15.2511 10.657L15.251 10.657L15.2794 10.855ZM15.2885 10.8537L15.3169 11.0518L15.3247 11.0504L15.2885 10.8537ZM15.7102 10.181L15.9082 10.1527L15.908 10.1513L15.7102 10.181ZM14.0652 6.58019L14.2153 6.44799L14.2153 6.44799L14.0652 6.58019ZM10.8931 4.71296L10.931 4.51659L10.9293 4.51627L10.8931 4.71296ZM10.3004 5.18732L10.1028 5.15632L10.1028 5.15632L10.3004 5.18732ZM19.1641 9.98328C18.8206 7.69622 17.8705 5.61176 16.4077 3.95135L16.1075 4.21576C17.5168 5.81546 18.4358 7.82769 18.7685 10.0427L19.1641 9.98328ZM18.5822 10.8742C18.9892 10.8046 19.2266 10.3815 19.1639 9.98199L18.7687 10.044C18.8048 10.2741 18.6623 10.4547 18.5147 10.4799L18.5822 10.8742ZM18.5678 10.8764C18.5708 10.8759 18.5737 10.8755 18.5766 10.8751L18.5203 10.4791C18.517 10.4795 18.5138 10.48 18.5109 10.4804L18.5678 10.8764ZM18.4611 10.8857C18.5048 10.8857 18.5427 10.88 18.5678 10.8764L18.5109 10.4804C18.4826 10.4845 18.472 10.4857 18.4611 10.4857V10.8857ZM17.7579 10.2318C17.8118 10.5988 18.0998 10.8857 18.4611 10.8857V10.4857C18.3285 10.4857 18.1833 10.3759 18.1537 10.1737L17.7579 10.2318ZM15.3857 5.0351C16.6431 6.46231 17.4633 8.25889 17.758 10.2323L18.1536 10.1732C17.8481 8.12749 16.9967 6.2586 15.6859 4.77069L15.3857 5.0351ZM10.829 2.35235C12.5523 2.68396 14.1285 3.61228 15.3859 5.03532L15.6857 4.77047C14.3749 3.28701 12.722 2.30929 10.9046 1.95955L10.829 2.35235ZM10.2471 1.45494C10.1895 1.85809 10.4227 2.27134 10.8277 2.35209L10.9059 1.95981C10.7486 1.92844 10.6095 1.74659 10.6431 1.51151L10.2471 1.45494ZM11.0736 0.81284C10.6578 0.728805 10.31 1.05385 10.2475 1.45223L10.6427 1.51423C10.679 1.28302 10.8554 1.17683 10.9943 1.20491L11.0736 0.81284ZM16.4077 3.95135C14.9447 2.29068 13.1017 1.20535 11.0719 0.812519L10.9959 1.20523C12.9324 1.57999 14.6985 2.61632 16.1075 4.21576L16.4077 3.95135ZM14.7836 11.8232C15.2286 11.8232 15.6539 12.0025 16.0135 12.3508L16.2918 12.0635C15.8656 11.6507 15.3432 11.4232 14.7836 11.4232V11.8232ZM13.5347 12.3498C13.9114 11.9993 14.3421 11.8232 14.7836 11.8232V11.4232C14.2288 11.4232 13.7036 11.6463 13.2622 12.0569L13.5347 12.3498ZM12.2545 13.5368L13.5344 12.35L13.2624 12.0567L11.9826 13.2435L12.2545 13.5368ZM11.8248 13.4699C11.8935 13.5027 11.9614 13.5351 12.029 13.569L12.2081 13.2113C12.1365 13.1755 12.0652 13.1414 11.9971 13.1089L11.8248 13.4699ZM11.8246 13.4698L11.8247 13.4699L11.9973 13.109L11.9972 13.109L11.8246 13.4698ZM11.8241 13.4696L11.8242 13.4696L11.9976 13.1091L11.9974 13.1091L11.8241 13.4696ZM11.7196 13.4195C11.7544 13.4363 11.7896 13.4531 11.8246 13.4698L11.9969 13.1088C11.9618 13.0921 11.9275 13.0757 11.8938 13.0594L11.7196 13.4195ZM11.3057 13.213C11.4323 13.2861 11.5786 13.3539 11.7223 13.4208L11.891 13.0581C11.7431 12.9893 11.614 12.9291 11.5057 12.8665L11.3057 13.213ZM7.92177 10.3458C8.97887 11.554 10.0844 12.4915 11.304 13.2119L11.5074 12.8676C10.3292 12.1714 9.25567 11.2629 8.22281 10.0824L7.92177 10.3458ZM6.79881 8.69651C7.05533 9.22459 7.40633 9.73979 7.91994 10.3437L8.22464 10.0845C7.72567 9.49785 7.39622 9.01088 7.15861 8.52173L6.79881 8.69651ZM7.69411 7.68676C7.42121 7.94435 7.14464 8.20536 6.84911 8.45679L7.10831 8.76145C7.41295 8.50227 7.69686 8.23421 7.96868 7.97764L7.69411 7.68676ZM7.68999 7.69075L7.68997 7.69077L7.97281 7.97362L7.97283 7.9736L7.68999 7.69075ZM7.78112 7.60465L7.69416 7.68671L7.96867 7.97764L8.05563 7.89559L7.78112 7.60465ZM7.95099 7.44476C7.89417 7.49856 7.83811 7.55163 7.78216 7.60368L8.0546 7.89656C8.11206 7.84311 8.1694 7.78881 8.226 7.73523L7.95099 7.44476ZM8.12239 7.28344C8.06493 7.33688 8.00758 7.39118 7.95099 7.44476L8.226 7.73523C8.28281 7.68144 8.33887 7.62836 8.39482 7.57632L8.12239 7.28344ZM8.12239 4.96918C8.51589 5.33521 8.69653 5.73895 8.69653 6.12631C8.69653 6.51366 8.51589 6.91741 8.12239 7.28344L8.39482 7.57632C8.85188 7.15116 9.09653 6.64693 9.09653 6.12631C9.09653 5.60568 8.85188 5.10145 8.39482 4.67629L8.12239 4.96918ZM7.01665 3.94064L8.12239 4.96918L8.39482 4.67629L7.28909 3.64776L7.01665 3.94064ZM6.63533 3.57825C6.75952 3.70148 6.89153 3.82425 7.01665 3.94064L7.28909 3.64776C7.16309 3.53056 7.03589 3.4122 6.91706 3.29431L6.63533 3.57825ZM5.88445 2.88725C6.14325 3.10947 6.39509 3.34737 6.6376 3.58047L6.91479 3.29209C6.67126 3.05801 6.41276 2.81366 6.14503 2.58378L5.88445 2.88725ZM4.65789 2.38169C5.09744 2.38169 5.51996 2.55187 5.87928 2.88266L6.1502 2.58837C5.72376 2.1958 5.2066 1.98169 4.65789 1.98169V2.38169ZM3.414 2.88469C3.78627 2.55226 4.21787 2.38169 4.65789 2.38169V1.98169C4.10963 1.98169 3.58536 2.1954 3.14757 2.58634L3.414 2.88469ZM3.4089 2.88949L3.417 2.88195L3.14456 2.58908L3.13646 2.59661L3.4089 2.88949ZM2.03244 4.18116L3.40954 2.88889L3.13583 2.59721L1.75872 3.88948L2.03244 4.18116ZM1.21577 5.80615C1.27575 5.175 1.54773 4.63203 2.0318 4.18176L1.75936 3.88888C1.20655 4.40309 0.887194 5.0356 0.817563 5.76831L1.21577 5.80615ZM1.72089 8.50869C1.45602 7.84421 1.123 6.85607 1.21589 5.80483L0.817443 5.76962C0.715916 6.91863 1.07955 7.98003 1.34932 8.6568L1.72089 8.50869ZM4.78267 13.2568C3.33276 11.6354 2.36669 10.1291 1.72089 8.5087L1.34932 8.65679C2.01582 10.3292 3.01009 11.8746 4.4845 13.5234L4.78267 13.2568ZM11.0624 17.8305C8.64934 16.7455 6.53756 15.206 4.78222 13.2563L4.48495 13.524C6.27767 15.5151 8.43491 17.0876 10.8984 18.1953L11.0624 17.8305ZM14.5566 18.7928C13.2043 18.7121 11.9878 18.2384 11.0611 17.8299L10.8997 18.1959C11.8362 18.6087 13.1065 19.107 14.5328 19.1921L14.5566 18.7928ZM14.7998 18.8C14.7239 18.8 14.6392 18.7965 14.5535 18.7927L14.5358 19.1923C14.6203 19.196 14.7137 19.2 14.7998 19.2V18.8ZM16.9948 17.9249C16.4197 18.5056 15.6865 18.8 14.7998 18.8V19.2C15.7844 19.2 16.6227 18.869 17.279 18.2064L16.9948 17.9249ZM16.9925 17.9261C16.9837 17.9357 16.9716 17.9506 16.9607 17.9709L17.313 18.1604C17.3041 18.1769 17.2945 18.1885 17.2885 18.1951L16.9925 17.9261ZM17.0088 17.9098C17.0082 17.9103 17.0005 17.9173 16.9926 17.926L17.2884 18.1952C17.2855 18.1985 17.2831 18.2008 17.2819 18.2019C17.2809 18.2029 17.2802 18.2036 17.2811 18.2027L17.0088 17.9098ZM16.9769 17.9521C16.9858 17.9355 16.9954 17.9239 17.0015 17.9173C17.0066 17.9116 17.0113 17.9074 17.0088 17.9098L17.2811 18.2027C17.2816 18.2022 17.2894 18.1952 17.2973 18.1865C17.3061 18.1768 17.3183 18.1619 17.3292 18.1415L16.9769 17.9521ZM17.6716 17.267C17.4388 17.4765 17.2073 17.6844 17.0035 17.9141L17.3027 18.1796C17.4889 17.9697 17.703 17.7768 17.9391 17.5644L17.6716 17.267ZM17.7281 17.2162L17.6716 17.2671L17.9391 17.5644L17.9956 17.5136L17.7281 17.2162ZM18.2489 16.7356C18.0778 16.9021 17.9022 17.0618 17.7292 17.2153L17.9946 17.5145C18.1699 17.359 18.3506 17.1948 18.5279 17.0222L18.2489 16.7356ZM18.8 15.5753C18.8 15.9743 18.6194 16.377 18.2493 16.7352L18.5275 17.0226C18.9593 16.6047 19.2 16.1032 19.2 15.5753H18.8ZM18.2408 14.4302C18.6167 14.7764 18.8 15.174 18.8 15.5753H19.2C19.2 15.0423 18.954 14.5432 18.5117 14.1359L18.2408 14.4302ZM16.0162 12.3533L18.2398 14.4292L18.5127 14.1368L16.2891 12.0609L16.0162 12.3533ZM17.337 16.6969L17.337 16.6969L17.0648 16.4037L17.0648 16.4038L17.337 16.6969ZM17.2428 16.7822L17.3351 16.6986L17.0666 16.4021L16.9742 16.4858L17.2428 16.7822ZM16.4745 17.5224C16.7183 17.2554 16.9791 17.0162 17.2412 16.7836L16.9758 16.4844C16.7114 16.719 16.4376 16.9695 16.1791 17.2526L16.4745 17.5224ZM14.8039 18.1865C15.484 18.1865 16.0182 17.9766 16.4678 17.5293L16.1858 17.2457C15.8173 17.6122 15.3874 17.7865 14.8039 17.7865V18.1865ZM14.6052 18.1824C14.6732 18.1866 14.7444 18.1865 14.8039 18.1865V17.7865C14.7419 17.7865 14.6834 17.7865 14.6299 17.7832L14.6052 18.1824ZM11.377 17.2839C12.2201 17.6589 13.3652 18.1086 14.6057 18.1824L14.6295 17.7831C13.464 17.7138 12.3734 17.2894 11.5396 16.9184L11.377 17.2839ZM5.33148 12.8797C7.02297 14.7579 9.05867 16.2399 11.3762 17.2835L11.5405 16.9188C9.27307 15.8978 7.28277 14.4487 5.62871 12.612L5.33148 12.8797ZM2.37805 8.30253C3.00014 9.86607 3.93787 11.3173 5.33084 12.879L5.62935 12.6128C4.26002 11.0775 3.35081 9.66543 2.74971 8.15466L2.37805 8.30253ZM1.91102 5.85256C1.84658 6.58385 1.99457 7.34747 2.37828 8.30312L2.74948 8.15407C2.37984 7.23348 2.25241 6.53529 2.30948 5.88767L1.91102 5.85256ZM2.53297 4.60471C2.16214 4.94965 1.95626 5.36017 1.91109 5.85181L2.30941 5.88841C2.34524 5.49845 2.50389 5.17806 2.80541 4.89759L2.53297 4.60471ZM3.91412 3.31998L2.53297 4.60471L2.80541 4.89759L4.18656 3.61286L3.91412 3.31998ZM4.66599 2.99892C4.39685 2.99892 4.14136 3.12142 3.91879 3.31577L4.18189 3.61707C4.35626 3.4648 4.52199 3.39892 4.66599 3.39892V2.99892ZM5.39355 3.31621C5.24975 3.18245 4.99601 2.99892 4.66599 2.99892V3.39892C4.8463 3.39892 5.0057 3.50173 5.12111 3.60909L5.39355 3.31621ZM5.4057 3.32751L5.39355 3.31621L5.12112 3.6091L5.13327 3.6204L5.4057 3.32751ZM6.13709 4.00412C5.88962 3.76638 5.65172 3.5412 5.40069 3.32301L5.13828 3.6249C5.38138 3.83621 5.61331 4.0556 5.85998 4.29257L6.13709 4.00412ZM6.32828 4.18572C6.26336 4.12438 6.19965 4.06418 6.13706 4.00408L5.86001 4.29261C5.92397 4.35402 5.98886 4.41532 6.05357 4.47646L6.32828 4.18572ZM6.31092 4.17109L6.31092 4.17109L6.07092 4.49109L6.07092 4.49109L6.31092 4.17109ZM6.3287 4.18612L6.32867 4.18609L6.05317 4.47609L6.0532 4.47612L6.3287 4.18612ZM6.52176 4.36947C6.45684 4.30719 6.39201 4.24593 6.32831 4.18575L6.0536 4.47649C6.11748 4.53685 6.18121 4.59707 6.24486 4.65813L6.52176 4.36947ZM7.62526 5.3959L6.51953 4.36736L6.2471 4.66024L7.35283 5.68878L7.62526 5.3959ZM7.62526 6.85672C7.85833 6.63992 8.01105 6.39847 8.01105 6.12631C8.01105 5.85414 7.85833 5.61269 7.62526 5.3959L7.35283 5.68878C7.5491 5.87134 7.61105 6.01418 7.61105 6.12631C7.61105 6.23843 7.5491 6.38127 7.35283 6.56383L7.62526 6.85672ZM7.50927 6.96545C7.54804 6.92897 7.58646 6.89281 7.62526 6.85672L7.35283 6.56383C7.31304 6.60085 7.27377 6.6378 7.23515 6.67415L7.50927 6.96545ZM7.50865 6.96603L7.50867 6.96601L7.23575 6.67359L7.23573 6.67361L7.50865 6.96603ZM7.27436 7.18308C7.35453 7.11108 7.43258 7.03762 7.50925 6.96547L7.23513 6.67417C7.15789 6.74685 7.08322 6.81711 7.00708 6.88549L7.27436 7.18308ZM6.25219 8.10716C6.60975 7.80897 6.93761 7.5039 7.27865 7.17911L7.00279 6.88945C6.66338 7.21268 6.34319 7.51043 5.996 7.79997L6.25219 8.10716ZM6.24335 8.11455C6.24755 8.11122 6.25355 8.10629 6.2603 8.10002L5.98789 7.80711C5.99125 7.80399 5.99385 7.8019 5.99473 7.8012L6.24335 8.11455ZM6.23721 8.11932C6.23808 8.11865 6.24062 8.11672 6.24338 8.11452L5.9947 7.80122L5.99412 7.80166L6.23721 8.11932ZM6.28001 8.06709C6.26825 8.08898 6.25454 8.10359 6.24611 8.11153C6.23928 8.11798 6.233 8.12254 6.23723 8.1193L5.9941 7.80168C5.99343 7.80219 5.98255 7.81028 5.97168 7.82052C5.95923 7.83227 5.94206 7.85096 5.92768 7.87772L6.28001 8.06709ZM6.08261 8.76334C6.04942 8.66556 6.02641 8.56717 6.03904 8.46569C6.05092 8.37022 6.09694 8.25197 6.24006 8.11884L5.96763 7.82596C5.76242 8.01685 5.66668 8.21883 5.6421 8.41629C5.61828 8.60774 5.66413 8.77496 5.70384 8.89193L6.08261 8.76334ZM6.09365 8.79407L6.0815 8.76016L5.70495 8.89511L5.7171 8.92901L6.09365 8.79407ZM7.36626 10.7178C6.75853 10 6.36571 9.40578 6.08819 8.78042L5.72257 8.94267C6.0202 9.61334 6.43743 10.2398 7.06099 10.9763L7.36626 10.7178ZM7.35388 10.7044L7.34983 10.7006L7.07742 10.9935L7.08147 10.9973L7.35388 10.7044ZM10.9157 13.7226C9.63637 12.97 8.47395 11.9862 7.36836 10.7193L7.06699 10.9823C8.19717 12.2774 9.39202 13.2903 10.7129 14.0674L10.9157 13.7226ZM11.3969 13.9661C11.2337 13.8902 11.0723 13.8149 10.916 13.7227L10.7127 14.0672C10.8885 14.1709 11.0674 14.254 11.2282 14.3287L11.3969 13.9661ZM11.402 13.9685L11.402 13.9685L11.2231 14.3263L11.2231 14.3263L11.402 13.9685ZM11.402 13.9685L11.402 13.9685L11.2231 14.3263L11.2231 14.3263L11.402 13.9685ZM11.8135 14.1739C11.6869 14.1008 11.5406 14.0329 11.3969 13.9661L11.2282 14.3288C11.3761 14.3976 11.5052 14.4578 11.6135 14.5203L11.8135 14.1739ZM11.8383 14.1874C11.8318 14.1836 11.8157 14.174 11.7979 14.1657L11.6292 14.5284C11.6276 14.5277 11.6273 14.5275 11.629 14.5284C11.6308 14.5294 11.6329 14.5306 11.6373 14.5332L11.8383 14.1874ZM11.8464 14.1921C11.848 14.1928 11.8483 14.193 11.8467 14.1921C11.8449 14.1912 11.8427 14.1899 11.8383 14.1874L11.6373 14.5332C11.6438 14.537 11.6599 14.5465 11.6778 14.5548L11.8464 14.1921ZM12.1631 14.2676C12.0619 14.2676 11.9609 14.2454 11.8465 14.1921L11.6778 14.5548C11.8387 14.6297 11.997 14.6676 12.1631 14.6676V14.2676ZM12.6425 14.0612C12.5791 14.1202 12.4178 14.2676 12.1631 14.2676V14.6676C12.5807 14.6676 12.8407 14.4232 12.915 14.3541L12.6425 14.0612ZM14.0277 12.7727L12.6425 14.0612L12.915 14.3541L14.3002 13.0656L14.0277 12.7727ZM14.7755 12.4366C14.4428 12.4366 14.1762 12.6346 14.0277 12.7727L14.3002 13.0656C14.4271 12.9476 14.5979 12.8366 14.7755 12.8366V12.4366ZM15.5016 12.7717C15.3593 12.6265 15.1043 12.4366 14.7755 12.4366V12.8366C14.949 12.8366 15.1071 12.9406 15.216 13.0517L15.5016 12.7717ZM15.5031 12.7727L15.495 12.7652L15.2226 13.0581L15.2307 13.0656L15.5031 12.7727ZM17.7348 14.8487L15.5031 12.7727L15.2307 13.0656L17.4624 15.1415L17.7348 14.8487ZM17.7417 16.3181C17.9693 16.0981 18.1127 15.8506 18.112 15.5786C18.1113 15.3054 17.9656 15.0612 17.7341 14.848L17.4631 15.1422C17.6488 15.3133 17.7117 15.459 17.712 15.5796C17.7123 15.7012 17.6492 15.8512 17.4636 16.0305L17.7417 16.3181ZM17.3351 16.6986C17.4741 16.5729 17.6103 16.4498 17.7442 16.3156L17.4611 16.033C17.3356 16.1588 17.207 16.2751 17.0668 16.402L17.3351 16.6986ZM13.4859 7.27164C12.7374 6.42204 11.7948 5.86237 10.752 5.66358L10.6771 6.0565C11.6249 6.23719 12.4906 6.74697 13.1858 7.53605L13.4859 7.27164ZM14.8936 10.3494C14.7173 9.18381 14.2345 8.1214 13.4859 7.27164L13.1858 7.53605C13.8808 8.32497 14.3326 9.31522 14.4981 10.4093L14.8936 10.3494ZM15.2011 10.6623C15.0686 10.6623 14.9234 10.5525 14.8937 10.3503L14.498 10.4084C14.5519 10.7754 14.8398 11.0623 15.2011 11.0623V10.6623ZM15.251 10.657C15.2227 10.6611 15.2121 10.6623 15.2011 10.6623V11.0623C15.2449 11.0623 15.2827 11.0566 15.3079 11.053L15.251 10.657ZM15.2602 10.6557L15.2511 10.657L15.3077 11.053L15.3169 11.0517L15.2602 10.6557ZM15.5122 10.2093C15.5462 10.447 15.4048 10.6289 15.2523 10.657L15.3247 11.0504C15.7345 10.975 15.9654 10.5532 15.9082 10.1527L15.5122 10.2093ZM13.9152 6.7124C14.7584 7.66961 15.3127 8.87977 15.5124 10.2107L15.908 10.1513C15.6974 8.74817 15.112 7.46582 14.2153 6.44799L13.9152 6.7124ZM10.8551 4.90933C12.0126 5.13315 13.0721 5.75543 13.9152 6.7124L14.2153 6.44799C13.3184 5.42992 12.1821 4.75851 10.931 4.5166L10.8551 4.90933ZM10.498 5.21832C10.5336 4.99159 10.7081 4.88228 10.8569 4.90966L10.9293 4.51627C10.5158 4.44016 10.166 4.75345 10.1028 5.15632L10.498 5.21832ZM10.7507 5.66334C10.6007 5.63572 10.4613 5.45241 10.498 5.21832L10.1028 5.15632C10.0408 5.55182 10.2661 5.98086 10.6783 6.05673L10.7507 5.66334Z" fill="#E5E5E5" mask="url(#path-1-outside-1_1612_18)"/>
</svg>
