<svg width="18" height="19" viewBox="0 0 18 19" fill="none" xmlns="http://www.w3.org/2000/svg">
<path d="M16.418 2.78711H1.58203C0.707941 2.78711 0 3.49945 0 4.36914V13.8613C0 14.7362 0.713145 15.4434 1.58203 15.4434H16.418C17.2847 15.4434 18 14.7392 18 13.8613V4.36914C18 3.50099 17.2949 2.78711 16.418 2.78711ZM16.1964 3.8418C15.8732 4.1633 10.3107 9.69647 10.1187 9.88751C9.81984 10.1863 9.42258 10.3509 9 10.3509C8.57742 10.3509 8.18016 10.1863 7.88034 9.88653C7.75118 9.75803 2.25011 4.28596 1.80359 3.8418H16.1964ZM1.05469 13.6467V4.58447L5.61227 9.11805L1.05469 13.6467ZM1.80425 14.3887L6.36005 9.86185L7.13556 10.6333C7.63358 11.1313 8.29571 11.4056 9 11.4056C9.70429 11.4056 10.3664 11.1313 10.8635 10.6343L11.64 9.86185L16.1957 14.3887H1.80425ZM16.9453 13.6467L12.3877 9.11805L16.9453 4.58447V13.6467Z" fill="#CCCCCC"/>
</svg>
