<?xml version="1.0" standalone="no"?>
<!DOCTYPE svg PUBLIC "-//W3C//DTD SVG 20010904//EN"
 "http://www.w3.org/TR/2001/REC-SVG-20010904/DTD/svg10.dtd">
<svg version="1.0" xmlns="http://www.w3.org/2000/svg"
 width="150.000000pt" height="150.000000pt" viewBox="0 0 150.000000 150.000000"
 preserveAspectRatio="xMidYMid meet">
<metadata>
Created by potrace 1.14, written by Peter Selinger 2001-2017
</metadata>
<g transform="translate(0.000000,150.000000) scale(0.100000,-0.100000)"
fill="#000000" stroke="none">
<path d="M0 755 l0 -365 83 -1 c45 0 204 -1 352 -2 l270 -1 0 74 c0 70 -1 73
-25 77 -94 14 -136 40 -177 110 -71 121 4 275 149 305 l58 12 0 78 c0 87 2 86
-79 67 -68 -15 -161 -64 -218 -114 l-53 -46 -31 35 c-36 41 -147 99 -234 121
-106 27 -95 66 -95 -350z"/>
<path d="M790 1041 c0 -72 2 -81 18 -81 43 0 118 -35 156 -74 110 -111 64
-286 -89 -336 -22 -8 -49 -14 -60 -15 -18 -2 -20 -9 -20 -75 l0 -74 352 0 353
-1 0 368 c0 420 12 380 -106 349 -97 -26 -155 -57 -209 -108 l-46 -45 -47 39
c-98 81 -160 112 -254 126 l-48 7 0 -80z"/>
<path d="M624 861 c-66 -40 -82 -146 -29 -201 30 -31 87 -56 105 -45 6 4 10
58 10 136 l0 129 -27 0 c-16 0 -42 -8 -59 -19z"/>
<path d="M790 744 l0 -136 33 7 c90 19 139 104 105 182 -21 48 -71 83 -119 83
-18 0 -19 -8 -19 -136z"/>
</g>
</svg>
