<svg width="20" height="15" viewBox="0 0 20 15" fill="none" xmlns="http://www.w3.org/2000/svg">
<path fill-rule="evenodd" clip-rule="evenodd" d="M16.0208 0.292893C16.4113 -0.0976311 17.0445 -0.0976311 17.435 0.292893C17.8256 0.683417 17.8256 1.31658 17.435 1.70711L12.1317 7.01041L18.1421 13.0208C18.5327 13.4113 18.5327 14.0445 18.1421 14.435C17.7516 14.8256 17.1184 14.8256 16.7279 14.435L10.7175 8.42462L4.70711 14.435C4.31658 14.8256 3.68342 14.8256 3.29289 14.435C2.90237 14.0445 2.90237 13.4113 3.29289 13.0208L9.3033 7.01041L4 1.70711C3.60948 1.31658 3.60948 0.683417 4 0.292893C4.39053 -0.0976311 5.02369 -0.0976311 5.41422 0.292893L10.7175 5.59619L16.0208 0.292893Z" fill="#818181"/>
</svg>
