<svg width="150" height="74" viewBox="0 0 150 74" fill="none" xmlns="http://www.w3.org/2000/svg">
<path fill-rule="evenodd" clip-rule="evenodd" d="M110.956 14.6882L110.956 14.6883L110.957 14.6886C112.335 15.9031 113.367 16.8122 114.032 17.1847L114.165 17.0515C114.398 16.793 114.626 16.5399 114.85 16.2919C119.345 11.2994 121.978 8.37445 129.085 5.3286C135.48 2.53108 142.806 0.399645 150 0V73.4014H78.9964V58.7478C109.902 57.4156 110.968 18.2504 78.9964 15.8526V0.26643C94.3478 0.0532164 105.434 9.82165 110.956 14.6882ZM71.0036 73.4018L0 73.2686V0.133571C8.9254 -0.266073 26.2433 5.99503 33.0373 13.4551C33.4906 13.9084 33.8957 14.4581 34.3038 15.0119C34.8553 15.7602 35.4123 16.516 36.1012 17.0519C38.0924 15.5949 39.4285 14.3151 40.7549 13.0444C43.0669 10.8296 45.3497 8.64281 51.0213 5.59538C56.4831 2.66465 64.6092 -0.399288 71.0036 0.133571V15.5865C70.3213 15.7172 69.6485 15.8399 68.985 15.9609L68.9841 15.9611L68.9838 15.9611C63.5593 16.9507 58.7577 17.8267 54.4849 21.9808C50.0888 26.2437 47.4245 30.773 47.5577 37.4338C47.6909 44.0945 50.0888 48.4906 54.4849 52.8867C58.3603 56.8796 63.6852 57.663 68.9079 58.4315C69.6096 58.5347 70.3094 58.6377 71.0036 58.7481V73.4018ZM71.0035 50.6217V23.8455C63.0107 23.0462 56.2167 29.0408 56.0835 37.0337C55.9503 45.0266 62.8774 51.5542 71.0035 50.6217ZM78.8632 50.8883C98.7123 50.8883 99.1119 23.9789 78.8632 23.8457V50.8883Z" fill="white"/>
</svg>
